<?xml version="1.0" encoding="UTF-8"?>
<svg width="40px" height="40px" viewBox="0 0 40 40" version="1.1" xmlns="http://www.w3.org/2000/svg" xmlns:xlink="http://www.w3.org/1999/xlink">
    <title>icon-hand</title>
    <g id="icon-hand" stroke="none" stroke-width="1" fill="none" fill-rule="evenodd">
        <path d="M32.1771941,10.8409774 C31.6916975,10.6432091 31.1908785,10.5223411 30.6669898,10.6945909 C30.3190506,10.8121829 30.1138336,10.8837382 29.8166821,10.9859846 C29.8166821,10.9387409 29.8166821,10.8654614 29.8166821,10.7923544 C29.8163378,9.97852117 29.8227078,9.16468797 29.8116895,8.35102721 C29.8080741,8.0732549 29.7889641,7.7892754 29.727158,7.51960694 C29.5419117,6.70991188 29.1631555,6.01729156 28.4628009,5.527095 C27.9106777,5.14052423 27.2920999,4.91016806 26.6334085,4.89740881 C26.2446669,4.88999465 25.842841,5.04207111 25.4647734,5.17362931 C25.1901752,5.26915126 24.9446723,5.44829801 24.6776492,5.59485696 C24.6776492,5.51537028 24.67851,5.43295243 24.6776492,5.35053458 C24.6686968,4.50532053 24.6986529,3.65734772 24.6383963,2.81575454 C24.5907074,2.14899756 24.2806438,1.55862365 23.8304404,1.05911629 C23.3761052,0.554953522 22.7924763,0.258214767 22.1458362,0.0919996827 C21.8920695,0.0268240584 21.6167826,-0.0188678475 21.3597449,0.00768518459 C20.9331277,0.0518252899 20.5194226,0.172003624 20.1258605,0.363737206 C19.5510119,0.643923422 19.1080393,1.05756449 18.7878182,1.60448798 C18.4061352,2.25624422 18.2792519,2.97231398 18.2904424,3.71769552 C18.3002556,4.37083114 18.3172997,5.02396677 18.3298675,5.67710239 C18.3305561,5.71848374 18.3193656,5.76003751 18.3128235,5.80900544 C17.7267843,5.16345639 17.0326275,4.81826698 16.1680304,4.92258246 C15.1341981,5.04707135 14.282341,5.49657625 13.7278075,6.41024195 C13.3963958,6.95630333 13.2058126,7.54891873 13.2065013,8.19808864 C13.2092559,11.3291049 13.2075342,14.4599488 13.2080507,17.5909651 C13.2080507,17.6804523 13.216831,17.769767 13.2171753,17.8592542 C13.2182083,18.2425489 13.2176918,18.6256713 13.2176918,19.0472437 C13.0176397,18.8960294 12.840485,18.7665403 12.668151,18.6308439 C11.9404226,18.0577122 11.2340423,17.4550964 10.4811783,16.9176561 C9.92888286,16.5234987 9.29257245,16.3096951 8.58911889,16.4226317 C7.7059283,16.5645352 6.9945553,16.9733485 6.47617579,17.7223509 C5.93524308,18.5037687 5.86018049,19.333982 6.22550806,20.1840239 C6.43451261,20.6702547 6.73269704,21.1214839 7.01814148,21.5708163 C7.45990894,22.2658506 7.92319663,22.9472634 8.38114731,23.6319523 C8.76369107,24.2042219 9.14640699,24.7764915 9.53824749,25.3423814 C9.97691603,25.9758609 10.430907,26.5989951 10.8692312,27.232647 C11.3893323,27.9842357 11.896177,28.7449628 12.4157616,29.4968964 C13.0245261,30.3778019 13.6417266,31.2530174 14.2534178,32.1318538 C14.818281,32.9434455 15.3827999,33.7552096 15.9412932,34.5711119 C16.0170444,34.6819794 16.1060521,34.8168136 16.1063964,34.9409577 C16.1125943,36.5682792 16.1036419,38.1957732 16.0993378,39.8230947 C16.0991656,39.882408 16.1067408,39.9415488 16.1108727,40 C21.3730014,40 26.6175696,40 31.882625,40 C31.882625,39.9170649 31.882625,39.8429233 31.882625,39.7687817 C31.882625,38.1826691 31.8805591,36.5965565 31.8864126,35.0102715 C31.8869291,34.885955 31.9205007,34.7499138 31.9774863,34.639736 C32.5561224,33.5210602 33.1450883,32.407557 33.7240688,31.2888812 C33.7813987,31.1781861 33.8177249,31.0428346 33.8178971,30.918863 C33.8228897,25.0018474 33.8228897,19.0846594 33.8234062,13.1676438 C33.8234062,13.1124686 33.8311535,13.0555693 33.8203073,13.0024632 C33.6192222,12.0181044 33.1464656,11.2359969 32.1771941,10.8409774 Z M32.5375289,30.5169467 C32.5371846,30.6038475 32.5282322,30.7009212 32.4896679,30.7759249 C31.9459806,31.8271836 31.4060809,32.8806838 30.8427671,33.9212523 C30.6657847,34.2481649 30.5907221,34.5714567 30.5955426,34.9411301 C30.6115537,36.127223 30.6013961,37.3136608 30.6015683,38.4999261 C30.6015683,38.5682053 30.6015683,38.6363121 30.6015683,38.7144194 C26.1668497,38.7144194 21.7450433,38.7144194 17.2967239,38.7144194 C17.2967239,38.5226858 17.2967239,38.3594019 17.2967239,38.1964629 C17.2967239,36.98261 17.298962,35.7687571 17.292592,34.5550766 C17.2920755,34.4536923 17.2550607,34.337997 17.1982473,34.2538549 C16.7161939,33.5389921 16.2329354,32.8246465 15.7355597,32.1203015 C15.2006526,31.3628504 14.6456027,30.6197103 14.1077689,29.8643283 C13.7722253,29.3932706 13.4544144,28.9094537 13.1250687,28.4337406 C12.6789972,27.7895709 12.2269,27.149367 11.782378,26.5041628 C11.4850543,26.0724174 11.1994377,25.6327406 10.9031471,25.2004779 C10.5450503,24.6782108 10.1786898,24.1616336 9.82093734,23.6390217 C9.47437542,23.1327898 9.13022377,22.6250062 8.79226994,22.112912 C8.33845115,21.4251195 7.89203533,20.7324992 7.4420041,20.0421203 C7.0221012,19.3979507 6.99765421,18.9075817 7.56647716,18.216858 C8.09862962,17.5704469 8.88540954,17.4287157 9.4509614,17.6816592 C9.74587475,17.8135623 10.0049784,18.0318489 10.269247,18.2261688 C11.4339223,19.0822455 12.5942935,19.9438396 13.7567307,20.8030199 C13.7834158,20.822676 13.813372,20.8385389 13.8557238,20.8649195 C14.0521606,20.6280113 14.2518684,20.4005863 14.4331549,20.1591951 C14.4798107,20.0972955 14.4808437,19.9910833 14.4810159,19.905217 C14.4844591,15.8982955 14.4854921,11.8912016 14.4856642,7.88428008 C14.4856642,7.46150063 14.6423316,7.10889705 14.9329409,6.80681321 C15.1806819,6.54921431 15.4341042,6.30196075 15.8004647,6.22816401 C16.5168304,6.08367414 17.1758662,6.12315884 17.7400408,6.69249723 C18.1473759,7.10355196 18.333655,7.56305736 18.3327942,8.13446481 C18.3260799,12.0310361 18.3286624,15.9276073 18.328318,19.8241786 C18.328318,19.9617716 18.328318,20.0993645 18.328318,20.2540273 C18.7261842,20.2540273 19.1138928,20.2540273 19.5293195,20.2540273 C19.5293195,20.1835066 19.5293195,20.110572 19.5293195,20.0374649 C19.5312133,17.0650771 19.5296638,14.0925169 19.5358617,11.1201291 C19.5413708,8.45137698 19.5556603,5.78279725 19.5654735,3.11421752 C19.5690889,2.14485943 20.4465981,1.22653833 21.4255108,1.2696439 C21.831985,1.28757582 22.2303677,1.29447271 22.5660834,1.55672701 C23.0729281,1.95260858 23.4222446,2.41401061 23.4205229,3.11835565 C23.4072665,8.71156221 23.4129478,14.3047688 23.4148416,19.8981477 L23.4148416,20.2695453 L23.4539224,20.2695453 C23.4539224,20.2698902 23.4540945,20.2704074 23.4540945,20.2707523 C23.8364661,20.2707523 24.1804456,20.2674763 24.5245973,20.2724765 C24.5352713,20.2726489 24.5425021,20.270235 24.551971,20.2695453 L24.6919386,20.2695453 L24.6919386,20.1166068 C24.6917665,20.1110893 24.6933159,20.1074684 24.6927994,20.101606 C24.6917665,20.0903986 24.692283,20.0788463 24.6919386,20.0674664 L24.6919386,19.9462535 C24.6919386,19.9428051 24.6921108,19.9393567 24.6921108,19.9360806 C24.6921108,15.9567467 24.6984808,11.9772403 24.6867738,7.99790636 C24.6843635,7.19114248 25.3277326,6.41662157 25.9945156,6.23781966 C27.0996229,5.94159817 28.0812901,6.39679301 28.4631452,7.47425988 C28.5141052,7.61771522 28.5337316,7.7792749 28.5339038,7.93255832 C28.5375192,11.9532736 28.5368305,15.9739889 28.5370027,19.9948766 L28.5370027,20.2693729 L28.7034833,20.2693729 C28.7324065,20.2704074 28.7646007,20.2707523 28.8047145,20.2707523 C29.1206316,20.2707523 29.4363765,20.2707523 29.7763963,20.2707523 C29.7763963,20.270235 29.7765684,20.2698902 29.7765684,20.2693729 L29.8140997,20.2693729 L29.8140997,19.9234938 C29.8140997,19.9228041 29.8142719,19.9221144 29.8142719,19.9214247 C29.81651,17.6454506 29.8158213,15.3696488 29.8159935,13.0936746 C29.8159935,12.4776098 30.4295785,11.8934431 31.0479841,11.8627519 C31.720965,11.8294744 32.1859743,12.1060398 32.4789939,12.6967585 C32.5197963,12.7790039 32.5423495,12.8795261 32.5423495,12.9714272 C32.5423495,18.1853047 32.5387341,23.3993547 32.5361516,28.6130598 C32.5351187,29.2480911 32.539767,29.8824327 32.5375289,30.5169467 Z" id="Shape" fill="#000000" fill-rule="nonzero"></path>
    </g>
</svg>