<?xml version="1.0" encoding="UTF-8"?>
<svg width="40px" height="40px" viewBox="0 0 40 40" version="1.1" xmlns="http://www.w3.org/2000/svg" xmlns:xlink="http://www.w3.org/1999/xlink">
    <title>icon-magnifying-glass</title>
    <g id="icon-magnifying-glass" stroke="none" stroke-width="1" fill="none" fill-rule="evenodd">
        <path d="M27.2932975,25.2832657 C33.5596927,18.7323096 32.6778957,9.78245367 27.320367,4.41742901 C22.0818697,-0.828335848 13.759864,-1.69871022 7.46880958,3.41612811 C1.97982707,7.8789264 -0.02424021,16.0121119 4.48560645,22.8982547 C6.99286909,26.7267908 10.6231436,28.9219861 15.1554246,29.4960628 C19.3702882,30.0299542 23.0925248,28.7371704 26.369413,26.109751 C30.6332242,30.7544019 34.88999,35.3910899 39.1211695,40 C39.4126297,39.7074061 39.6983424,39.4209233 40,39.1181441 C35.7788325,34.522197 31.5411637,29.9081018 27.2932975,25.2832657 Z M24.8062443,25.7362307 C23.3558031,26.814569 21.7449847,27.5540169 19.981576,27.9419816 C19.3723277,28.0762415 18.7443533,28.1314269 18.1226827,28.202168 C17.7268381,28.2473534 17.3269146,28.2680942 16.9284744,28.2756868 C16.0251701,28.2925388 15.1298384,28.215131 14.2385856,28.0553155 C12.8356087,27.8034624 11.5140256,27.3277195 10.2706844,26.6399386 C8.68155859,25.7610457 7.34310344,24.5821513 6.20414653,23.1743671 C5.19330604,21.9249169 4.45353099,20.5232438 3.96479741,18.9989775 C3.75398933,18.3423078 3.64144711,17.6523047 3.50980794,16.9724867 C3.31457408,15.9645191 3.32588392,14.9413663 3.36926922,13.9224727 C3.39225973,13.3804332 3.50127921,12.8419122 3.57451508,12.3020949 C3.69910877,11.3820907 3.97351155,10.5026422 4.32597079,9.6481938 C4.94708517,8.14281651 5.81905561,6.799477 6.93910098,5.61187894 C7.94345221,4.54687405 9.07017225,3.64094396 10.3544885,2.94057037 C11.4153889,2.36204919 12.5354343,1.92038049 13.7227825,1.68074976 C14.3292497,1.55834179 14.9473976,1.48778591 15.5629498,1.41667447 C15.9879033,1.36760017 16.4173065,1.3579705 16.8448557,1.33056297 C18.2825037,1.34185931 19.694751,1.52686016 21.0610172,1.96963998 C23.3951095,2.72631012 25.3574601,4.05650142 26.989415,5.88317649 C28.188073,7.22466414 29.0902649,8.74170815 29.6425932,10.449679 C29.8795437,11.1832009 30.0171159,11.950797 30.1726726,12.7083931 C30.3797725,13.7159903 30.3716146,14.7426617 30.3087615,15.759333 C30.1962193,17.5823043 29.745865,19.3250901 28.9035597,20.9586162 C27.9149681,22.8754768 26.5325714,24.4528915 24.8062443,25.7362307 Z" id="Shape" fill="#000000" fill-rule="nonzero"></path>
        <path d="M17.6666573,14.2459846 C17.6666573,11.4750275 17.6666573,8.73817382 17.6666573,6 C17.1580012,6 16.7061059,6 16.214763,6 C16.214763,8.75313531 16.214763,11.4917492 16.214763,14.2490649 C13.452767,14.2490649 10.730657,14.2490649 8,14.2490649 C8,14.7487349 8,15.2290429 8,15.7570957 C10.7495042,15.7570957 13.4692035,15.7570957 16.2193652,15.7570957 C16.2193652,18.5177118 16.2193652,21.2508251 16.2193652,24 C16.7267064,24 17.2042426,24 17.713337,24 C17.713337,21.2446645 17.713337,18.5049505 17.713337,15.7427943 C17.8489933,15.7427943 17.9530914,15.7427943 18.0569703,15.7427943 C19.6995284,15.7445545 21.3418674,15.7469747 22.9844255,15.7476348 C23.911008,15.7480748 24.8373713,15.7489549 25.7637347,15.7392739 C25.8424109,15.7383938 25.9868333,15.6616062 25.9883674,15.6158416 C26.0054614,15.1709571 25.9986676,14.7247525 25.9986676,14.2455446 C23.2182627,14.2459846 20.4707308,14.2459846 17.6666573,14.2459846 Z" id="Path" fill="#000000" fill-rule="nonzero"></path>
    </g>
</svg>