<svg width="343" height="350" viewBox="0 0 343 350" fill="none" xmlns="http://www.w3.org/2000/svg">
<path d="M122.021 2.68264C143.931 2.68264 149.95 19.9988 149.95 19.9988C149.95 19.9988 153.372 14.504 163.419 6.34162C173.466 -1.8208 195.241 -3.35336 208.86 9.24946C214.096 14.0947 219.214 20.2522 219.214 24.2963C239.688 13.7165 262.986 13.9517 282.755 45.9262C311.936 34.6411 326.431 46.7929 331.704 53.9198C335.138 58.233 337.587 61.6784 343 73.6688C343 116.341 343 159.013 343 202.978C335.705 229.78 307.645 300.653 306.994 313.008C306.288 319.12 302.758 343.337 301.581 348.274C239.298 348.274 177.014 348.274 112.843 348.274C112.843 354.189 112.843 342.533 112.843 348.274C110.811 336.092 111.012 323.625 109.784 311.362C109.617 309.693 108.986 304.309 107.195 299.607C82.7808 235.509 29.7705 184.874 0.824452 124.452C-7.41224 73.1987 48.1266 61.6784 75.6607 99.0604C75.6607 99.0604 79.426 105.878 85.5447 107.054C85.5447 46.0721 85.5447 92.785 85.5447 29.9551C89.5454 7.61994 114.255 3.38796 122.021 2.68264ZM102.959 33.7168C102.959 105.716 102.959 70.0201 102.959 144.201C99.0764 144.201 95.1934 144.201 91.1927 144.201C91.1927 144.201 89.0747 141.85 87.192 139.969C76.3667 129.154 57.3046 100.236 43.4199 96.2391C35.6539 94.3582 37.3012 95.9382 37.3012 95.2987C21.3629 95.2987 19.6512 108.23 19.1805 107.759C17.7685 114.577 19.6512 119.515 19.6512 119.515C20.6198 122.055 23.4165 128.214 23.4165 128.214C35.2784 147.471 114.961 266.457 126.493 295.61C128.14 310.657 130.023 324.528 130.729 330.876C181.208 330.876 231.687 330.876 283.696 330.876C284.873 328.525 284.167 329.23 286.755 320.531C288.134 306.835 297.816 275.626 325.115 199.216C325.115 159.648 325.115 120.079 325.115 79.3114C324.836 79.3114 324.644 68.2613 311.23 60.2677C299.463 57.4464 290.05 61.2081 284.402 69.6259C284.402 87.7808 283.696 105.747 283.696 124.452C277.328 124.452 270.96 124.452 264.398 124.452C264.398 100.556 264.398 76.6594 264.398 52.039C259.456 43.5751 256.582 38.3884 248.396 36.0517C244.513 36.0517 243.218 35.8166 236.864 36.5219C230.275 40.0485 227.686 41.4592 222.98 50.1581C222.98 68.9337 222.98 87.7094 222.98 107.054C217.078 107.054 211.175 107.054 205.094 107.054C205.094 83.6233 205.094 60.1924 205.094 36.0517C202.506 28.7634 198.661 21.0569 191.445 18.6537C181.09 16.7729 173.56 18.6537 173.56 18.6537C161.793 25.0016 164.146 27.5878 161.793 34.1708C161.793 56.0594 161.793 86.6597 161.793 100.941C155.988 100.941 150.183 100.941 144.378 100.941C144.378 100.941 144.378 100.941 144.378 99.0604C144.378 43.3542 144.378 95.343 144.378 37.9487C130.964 7.14976 102.018 28.7796 102.959 33.7168Z" fill="black"/>
<path d="M102.959 33.7168C102.959 105.716 102.959 70.0201 102.959 144.201C99.0764 144.201 95.1934 144.201 91.1927 144.201C91.1927 144.201 89.0747 141.85 87.192 139.969C76.3667 129.154 57.3046 100.236 43.4199 96.2391C35.6539 94.3582 37.3012 95.9382 37.3012 95.2987C21.3629 95.2987 19.6512 108.23 19.1805 107.759C17.7685 114.577 19.6512 119.515 19.6512 119.515C20.6198 122.055 23.4165 128.214 23.4165 128.214C35.2784 147.471 114.961 266.457 126.493 295.61C128.14 310.657 130.023 324.528 130.729 330.876C181.208 330.876 231.687 330.876 283.696 330.876C284.873 328.525 284.167 329.23 286.755 320.531C288.134 306.835 297.816 275.626 325.115 199.216C325.115 159.648 325.115 120.079 325.115 79.3114C324.836 79.3114 324.644 68.2613 311.23 60.2677C299.463 57.4464 290.05 61.2081 284.402 69.6259C284.402 87.7808 283.696 105.747 283.696 124.452C277.328 124.452 270.96 124.452 264.398 124.452C264.398 100.556 264.398 76.6594 264.398 52.039C259.456 43.5751 256.582 38.3884 248.396 36.0517C244.513 36.0517 243.218 35.8166 236.864 36.5219C230.275 40.0485 227.686 41.4592 222.98 50.1581C222.98 68.9337 222.98 87.7094 222.98 107.054C217.078 107.054 211.175 107.054 205.094 107.054C205.094 83.6233 205.094 60.1924 205.094 36.0517C202.506 28.7634 198.661 21.0569 191.445 18.6537C181.09 16.7729 173.56 18.6537 173.56 18.6537C161.793 25.0016 164.146 27.5878 161.793 34.1708C161.793 56.0594 161.793 86.6597 161.793 100.941C155.988 100.941 150.183 100.941 144.378 100.941C144.378 100.941 144.378 100.941 144.378 99.0604C144.378 43.3542 144.378 95.343 144.378 37.9487C130.964 7.14976 102.018 28.7796 102.959 33.7168Z" fill="white"/>
<path d="M184.789 0.508789C193.094 0.67871 201.818 3.4135 208.521 9.61621C211.124 12.025 213.688 14.752 215.597 17.3682C217.524 20.0099 218.715 22.4464 218.715 24.2959V25.1172L219.444 24.7402C229.616 19.4842 240.43 16.9454 251.127 19.6387C261.819 22.3307 272.49 30.2753 282.329 46.1895L282.548 46.542L282.935 46.3926C297.44 40.7832 308.241 41.0175 316.044 43.4951C323.852 45.9744 328.713 50.7174 331.302 54.2168L331.308 54.2246L331.312 54.2314C334.706 58.4941 337.131 61.8952 342.5 73.7783V202.909C338.848 216.3 330.035 240.651 322.034 263.243C318.03 274.549 314.231 285.411 311.393 294.219C309.973 298.622 308.792 302.519 307.945 305.703C307.105 308.864 306.582 311.362 306.495 312.964C305.802 318.953 302.429 342.111 301.182 347.773H113.344V346.635H113.091C112.249 341.078 111.837 335.461 111.511 329.819C111.154 323.658 110.896 317.458 110.281 311.312C110.113 309.636 109.479 304.196 107.663 299.429C95.431 267.315 76.0401 238.586 56.1182 210.363C36.1991 182.145 15.7562 154.441 1.30762 124.303C-0.718839 111.612 1.20193 101.427 5.60352 93.8564C10.0124 86.2732 16.9321 81.2733 24.9648 78.999C41.0305 74.4506 61.5807 80.8078 75.2393 99.332C75.2472 99.346 75.2581 99.3645 75.2715 99.3877C75.3023 99.4409 75.3479 99.5177 75.4072 99.6152C75.5261 99.8105 75.702 100.089 75.9316 100.426C76.3905 101.098 77.0673 102.008 77.9404 102.955C79.6779 104.841 82.2388 106.928 85.4502 107.545L86.0449 107.659V30.001C88.0203 19.0572 95.0533 12.5379 102.6 8.65234C110.152 4.76391 118.181 3.53535 122.043 3.18262C132.836 3.18827 139.687 7.44898 143.845 11.6904C145.929 13.817 147.341 15.9441 148.23 17.5371C148.675 18.3331 148.989 18.9947 149.19 19.4551C149.291 19.6852 149.364 19.8656 149.411 19.9863C149.435 20.0466 149.452 20.0922 149.463 20.1221C149.468 20.1366 149.472 20.1474 149.475 20.1543L149.478 20.1621V20.1631L149.821 21.1514L150.375 20.2637L150.376 20.2617C150.377 20.2598 150.379 20.2556 150.382 20.251C150.388 20.2418 150.397 20.2276 150.41 20.208C150.436 20.1686 150.476 20.1085 150.53 20.0283C150.64 19.8678 150.808 19.6263 151.043 19.3105C151.512 18.679 152.246 17.7479 153.292 16.5615C155.385 14.1886 158.732 10.7934 163.734 6.72949C168.645 2.74034 176.475 0.338758 184.789 0.508789ZM143.878 101.441H162.293V34.2529C162.873 32.6113 163.17 31.2112 163.457 29.9746C163.751 28.7099 164.033 27.6253 164.59 26.5547C165.691 24.4364 167.922 22.2696 173.741 19.124C173.747 19.1227 173.753 19.1216 173.759 19.1201C173.814 19.1075 173.897 19.0886 174.007 19.0654C174.227 19.019 174.555 18.9541 174.981 18.8818C175.835 18.7372 177.085 18.5636 178.656 18.4473C181.792 18.2152 186.207 18.2138 191.319 19.1387C194.779 20.3002 197.454 22.7351 199.595 25.8066C201.728 28.8685 203.311 32.5375 204.595 36.1406V107.554H223.479V50.2871C225.793 46.0256 227.571 43.5801 229.554 41.7695C231.541 39.9541 233.756 38.7526 237.016 37.0078C243.212 36.3238 244.502 36.5479 248.321 36.5508C256.202 38.8223 258.996 43.7766 263.898 52.1738V124.952H284.196V124.452C284.196 115.105 284.372 105.942 284.549 96.8428C284.724 87.7962 284.899 78.8114 284.901 69.7803C290.419 61.6575 299.548 58.0068 311.038 60.7363C317.609 64.6697 320.929 69.3324 322.645 72.999C323.506 74.8409 323.966 76.4374 324.227 77.5723C324.357 78.1401 324.438 78.5927 324.496 78.9111C324.524 79.0652 324.55 79.2033 324.574 79.3027C324.583 79.3382 324.598 79.3836 324.614 79.4307V199.13C310.981 237.292 301.742 264.18 295.738 283.241C289.748 302.261 286.966 313.524 286.263 320.434C284.975 324.763 284.504 326.761 284.21 327.966C283.947 329.044 283.835 329.449 283.385 330.376H131.174C130.811 327.18 130.19 322.303 129.46 316.443C128.695 310.302 127.813 303.075 126.99 295.556L126.982 295.488L126.958 295.426L126.674 294.723C123.608 287.283 116.604 274.671 107.62 259.607C98.3391 244.046 86.9234 225.832 75.5 207.932C52.6667 172.152 29.8169 137.647 23.8594 127.98C23.8544 127.969 23.8478 127.955 23.8398 127.938C23.8192 127.892 23.789 127.825 23.75 127.738C23.6718 127.565 23.5593 127.315 23.4209 127.007C23.1439 126.39 22.7641 125.542 22.3545 124.614C21.5335 122.755 20.5971 120.593 20.1182 119.337V119.336C20.1176 119.334 20.1167 119.331 20.1152 119.327C20.1124 119.319 20.1076 119.307 20.1016 119.29C20.0894 119.256 20.0709 119.203 20.0479 119.133C20.0017 118.992 19.9361 118.781 19.8613 118.506C19.7117 117.954 19.5257 117.144 19.3818 116.124C19.1001 114.126 18.9843 111.324 19.6289 108.071C19.6704 108.024 19.6987 107.981 19.7129 107.958C19.7809 107.847 19.8458 107.693 19.9053 107.544C20.0392 107.208 20.1917 106.778 20.4307 106.202C20.8965 105.08 21.6329 103.552 22.835 102.013C25.1737 99.0187 29.315 95.9332 36.8135 95.8047C36.8213 95.8124 36.8286 95.8209 36.8369 95.8281C37.0745 96.0348 37.3744 95.9699 37.5391 95.8506C37.5648 95.8319 37.588 95.8111 37.6094 95.79C37.8522 95.7698 38.3116 95.7747 39.1211 95.8838C40.0328 96.0067 41.3619 96.2551 43.2822 96.7197C46.6447 97.6878 50.3713 100.185 54.2637 103.612C58.1473 107.032 62.1535 111.34 66.0752 115.874C69.9968 120.408 73.8213 125.154 77.3516 129.453C80.8756 133.745 84.1124 137.598 86.8389 140.322C87.7739 141.256 88.7692 142.31 89.5322 143.131C89.9134 143.541 90.2358 143.893 90.4629 144.142C90.5763 144.266 90.6663 144.364 90.7275 144.432C90.7581 144.465 90.782 144.491 90.7979 144.509C90.8058 144.518 90.8114 144.525 90.8154 144.529C90.8173 144.531 90.8184 144.533 90.8193 144.534L90.8213 144.535L90.9697 144.701H103.459V33.6699L103.45 33.623C103.416 33.4417 103.442 33.1685 103.588 32.793C103.731 32.423 103.976 31.9909 104.323 31.5117C105.018 30.5537 106.09 29.4546 107.461 28.3535C110.203 26.1519 114.087 23.9846 118.405 22.917C122.719 21.8504 127.441 21.8867 131.896 24.0498C136.331 26.2029 140.566 30.494 143.878 38.0537V101.441ZM144.878 37.8447L144.837 37.749C141.448 29.9682 137.05 25.4407 132.333 23.1504C127.618 20.8614 122.647 20.8382 118.165 21.9463C113.688 23.0534 109.675 25.2944 106.835 27.5742C105.415 28.714 104.274 29.8753 103.514 30.9248C103.134 31.4491 102.84 31.9576 102.656 32.4316C102.484 32.877 102.396 33.3274 102.459 33.7451V143.701H91.4141C91.3575 143.639 91.2858 143.56 91.2012 143.467C90.9724 143.216 90.648 142.863 90.2646 142.45C89.498 141.625 88.4926 140.562 87.5449 139.615C84.8589 136.932 81.6535 133.115 78.125 128.818C74.6026 124.529 70.7637 119.767 66.8311 115.22C62.8986 110.673 58.8585 106.326 54.9248 102.862C51.0002 99.4062 47.1381 96.7893 43.5586 95.7588L43.5371 95.7529C41.5857 95.2803 40.2143 95.022 39.2539 94.8926C38.3747 94.7741 37.8157 94.761 37.4609 94.7988H37.3008C29.1709 94.7989 24.6161 98.1082 22.0469 101.397C20.7699 103.032 19.9924 104.649 19.5068 105.819C19.3265 106.254 19.1766 106.649 19.0664 106.938L18.8789 106.751L18.6904 107.658C17.9707 111.134 18.0911 114.132 18.3916 116.264C18.5419 117.33 18.7372 118.18 18.8965 118.768C18.9761 119.061 19.0464 119.289 19.0977 119.445C19.1233 119.523 19.1444 119.583 19.1592 119.625C19.1665 119.646 19.1726 119.662 19.1768 119.673C19.1788 119.678 19.1804 119.683 19.1816 119.687C19.1822 119.688 19.1832 119.689 19.1836 119.69V119.692C19.6732 120.976 20.6201 123.163 21.4395 125.019C21.8501 125.948 22.2312 126.799 22.5088 127.417C22.6475 127.726 22.7604 127.977 22.8389 128.15C22.878 128.237 22.9089 128.305 22.9297 128.351C22.94 128.373 22.9478 128.391 22.9531 128.402C22.9558 128.408 22.9576 128.413 22.959 128.416C22.9596 128.417 22.9606 128.418 22.9609 128.419V128.42L22.9746 128.449L22.9912 128.476C28.9232 138.106 51.8234 172.689 74.6572 208.47C86.0786 226.367 97.4874 244.57 106.761 260.119C116.015 275.637 123.122 288.477 126.003 295.732C126.825 303.235 127.705 310.442 128.468 316.566C129.233 322.712 129.879 327.762 130.231 330.932L130.281 331.376H284.005L284.143 331.1C284.752 329.882 284.881 329.432 285.182 328.202C285.475 327.001 285.943 325.012 287.234 320.674L287.248 320.628L287.253 320.581C287.937 313.79 290.687 302.609 296.692 283.541C302.695 264.485 311.937 237.587 325.586 199.384L325.614 199.303V78.8115H325.495C325.49 78.7863 325.485 78.759 325.479 78.7305C325.421 78.4135 325.337 77.9401 325.201 77.3477C324.928 76.1609 324.449 74.4949 323.551 72.5752C321.752 68.7305 318.286 63.89 311.486 59.8379L311.421 59.7988L311.347 59.7812L310.788 59.6523C299.096 57.0372 289.672 60.8744 283.986 69.3477L283.902 69.4736V69.626C283.902 78.6977 283.725 87.7234 283.549 96.8232C283.375 105.759 283.203 114.767 283.197 123.952H264.898V51.9033L264.83 51.7871C259.904 43.3503 256.94 37.9711 248.533 35.5713L248.466 35.5518H248.396C244.527 35.5517 243.198 35.3163 236.81 36.0254L236.714 36.0352L236.629 36.0811C233.346 37.8382 230.992 39.1007 228.879 41.0312C226.76 42.9669 224.904 45.5503 222.54 49.9199L222.479 50.0312V106.554H205.595V35.9658L205.565 35.8848C204.265 32.2248 202.639 28.4273 200.415 25.2354C198.189 22.0403 195.344 19.4257 191.603 18.1797L191.569 18.168L191.534 18.1621L190.562 17.9951C185.748 17.2137 181.592 17.2275 178.582 17.4502C176.977 17.569 175.696 17.7472 174.814 17.8965C174.374 17.9711 174.032 18.0378 173.8 18.0869C173.684 18.1114 173.595 18.1315 173.534 18.1455C173.504 18.1525 173.481 18.1583 173.465 18.1621C173.457 18.164 173.451 18.1659 173.446 18.167C173.444 18.1675 173.442 18.1677 173.44 18.168H173.439L173.438 18.1689L173.378 18.1836L173.322 18.2139C167.417 21.3998 164.95 23.693 163.702 26.0938C163.082 27.2859 162.777 28.4793 162.482 29.749C162.186 31.0256 161.899 32.3903 161.322 34.0029L161.293 34.084V100.441H144.878V37.8447Z" stroke="black"/>
</svg>
