<svg width="322" height="428" viewBox="0 0 322 428" fill="none" xmlns="http://www.w3.org/2000/svg">
<path d="M114.551 0C135.119 0 146.364 11.0575 151.887 27.4225C151.887 51.7976 151.887 76.1727 151.887 101.286C151.887 99.9596 184.142 92.6617 196.072 107.479C200.933 111.902 205.793 117.828 205.793 121.632C225.014 111.681 246.885 111.902 265.443 141.978C292.838 131.363 306.446 142.793 311.396 149.497C314.62 153.554 316.919 156.795 322 168.074C322 208.212 322 248.351 322 289.706C315.151 314.917 288.809 381.583 288.198 393.204C287.536 398.954 284.222 421.732 283.117 426.376C224.647 426.376 166.177 426.376 105.935 426.376C105.935 431.94 105.935 420.976 105.935 426.376C104.027 414.918 104.215 403.191 103.063 391.656C102.906 390.086 102.314 385.021 100.632 380.598C77.7126 320.306 27.9478 272.677 0.773976 215.842C-6.95843 167.631 45.1801 156.795 71.0284 191.958C71.0284 191.958 74.5632 198.371 80.3073 199.477C80.3073 142.115 80.3073 84.7533 80.3073 25.6533C84.063 4.64414 107.26 0.663449 114.551 0ZM96.6558 29.1917C96.6558 96.9166 96.6558 164.641 96.6558 234.419C93.0105 234.419 89.3652 234.419 85.6095 234.419C85.6095 234.419 83.6211 232.207 81.8537 230.438C71.6911 220.265 53.7962 193.064 40.7615 189.304C33.471 187.535 35.0175 189.021 35.0175 188.419C20.055 188.419 18.448 200.583 18.0062 200.14C16.6806 206.554 18.448 211.198 18.448 211.198C19.3574 213.587 21.9829 219.38 21.9829 219.38C33.1185 237.494 107.923 349.416 118.748 376.839C120.295 390.992 122.062 404.04 122.725 410.011C170.114 410.011 217.502 410.011 266.327 410.011C267.431 407.8 266.769 408.463 269.199 400.281C270.493 387.398 279.582 358.041 305.21 286.168C305.21 248.948 305.21 211.729 305.21 173.381C304.948 173.381 304.768 162.987 292.175 155.468C281.129 152.814 272.292 156.353 266.99 164.271C266.99 181.348 266.327 198.247 266.327 215.842C260.348 215.842 254.37 215.842 248.211 215.842C248.211 193.364 248.211 170.887 248.211 147.728C243.571 139.767 240.873 134.888 233.188 132.69C229.543 132.69 228.328 132.469 222.363 133.132C216.177 136.449 213.746 137.776 209.328 145.959C209.328 163.62 209.328 181.281 209.328 199.477C203.787 199.477 198.246 199.477 192.538 199.477C192.538 177.437 192.538 155.397 192.538 132.69C190.107 125.834 186.498 118.585 179.724 116.325C170.003 114.555 162.933 116.325 162.933 116.325C151.887 122.296 154.096 124.728 151.887 130.921C151.887 151.51 151.887 180.293 151.887 193.727C146.438 193.727 140.988 193.727 135.539 193.727C135.539 193.727 135.539 193.727 135.539 191.958C135.539 139.559 135.539 87.1595 135.539 33.1724C122.946 4.20184 95.7721 24.5476 96.6558 29.1917Z" fill="black"/>
<path d="M96.6558 29.1917C96.6558 96.9166 96.6558 164.641 96.6558 234.419C93.0105 234.419 89.3652 234.419 85.6095 234.419C85.6095 234.419 83.6211 232.207 81.8537 230.438C71.6911 220.265 53.7962 193.064 40.7615 189.304C33.471 187.535 35.0175 189.021 35.0175 188.419C20.055 188.419 18.448 200.583 18.0062 200.14C16.6806 206.554 18.448 211.198 18.448 211.198C19.3574 213.587 21.9829 219.38 21.9829 219.38C33.1185 237.494 107.923 349.416 118.748 376.839C120.295 390.992 122.062 404.04 122.725 410.011C170.114 410.011 217.502 410.011 266.327 410.011C267.431 407.8 266.769 408.463 269.199 400.281C270.493 387.398 279.582 358.041 305.21 286.168C305.21 248.948 305.21 211.729 305.21 173.381C304.948 173.381 304.768 162.987 292.175 155.468C281.129 152.814 272.292 156.353 266.99 164.271C266.99 181.348 266.327 198.247 266.327 215.842C260.348 215.842 254.37 215.842 248.211 215.842C248.211 193.364 248.211 170.887 248.211 147.728C243.571 139.767 240.873 134.888 233.188 132.69C229.543 132.69 228.328 132.469 222.363 133.132C216.177 136.449 213.746 137.776 209.328 145.959C209.328 163.62 209.328 181.281 209.328 199.477C203.787 199.477 198.246 199.477 192.538 199.477C192.538 177.437 192.538 155.397 192.538 132.69C190.107 125.834 186.498 118.585 179.724 116.325C170.003 114.555 162.933 116.325 162.933 116.325C151.887 122.296 154.096 124.728 151.887 130.921C151.887 151.51 151.887 180.293 151.887 193.727C146.438 193.727 140.988 193.727 135.539 193.727C135.539 193.727 135.539 193.727 135.539 191.958C135.539 139.559 135.539 87.1595 135.539 33.1724C122.946 4.20184 95.7721 24.5476 96.6558 29.1917Z" fill="white"/>
</svg>
