<svg width="373" height="378" viewBox="0 0 373 378" fill="none" xmlns="http://www.w3.org/2000/svg">
<path d="M17 151C17 77.5461 76.5461 18 150 18C223.454 18 283 77.5461 283 151C283 224.454 223.454 284 150 284C76.5461 284 17 224.454 17 151Z" fill="white"/>
<path d="M63 142H236V159H63V142Z" fill="black"/>
<path fill-rule="evenodd" clip-rule="evenodd" d="M150.5 0C233.619 0 301 67.3811 301 150.5C301 190.101 285.705 226.129 260.7 253C256.558 257.451 252.15 261.652 247.5 265.575C221.305 287.679 187.458 301 150.5 301C67.3811 301 0 233.619 0 150.5C0 67.3811 67.3811 0 150.5 0ZM150 18C76.5461 18 17 77.5461 17 151C17 224.454 76.5461 284 150 284C223.454 284 283 224.454 283 151C283 77.5461 223.454 18 150 18Z" fill="black"/>
<path d="M373 365L362 377.5C324.5 340.333 249.2 265.9 248 265.5V263L259.5 252L373 365Z" fill="black"/>
</svg>
