<?xml version="1.0" encoding="UTF-8"?>
<svg width="40px" height="40px" viewBox="0 0 40 40" version="1.1" xmlns="http://www.w3.org/2000/svg" xmlns:xlink="http://www.w3.org/1999/xlink">
    <title>icon-x</title>
    <g id="icon-x" stroke="none" stroke-width="1" fill="none" fill-rule="evenodd">
        <path d="M37.9865137,2.8621968 C37.7162624,2.60439593 37.4248183,2.3266295 37.0824065,2 C31.3939925,7.72048221 25.7248446,13.4215243 20.0451878,19.1334248 C14.3163149,13.4150442 8.62212103,7.73151581 2.92092127,2.04098193 C2.60880988,2.33976473 2.31771609,2.61805657 2,2.92209346 C7.71048253,8.63767185 13.4008232,14.3334598 19.1107803,20.0485128 C19.0682196,20.0830147 19.0155005,20.1189177 18.9710132,20.1632272 C13.374376,25.7518316 7.77843944,31.3409615 2.18180226,36.929566 C2.12855767,36.9826323 2.06883265,37.0292186 2.01208512,37.0789574 C2.01208512,37.0929683 2.01208512,37.1069792 2.01208512,37.1209901 C2.31684035,37.405762 2.62159559,37.6905339 2.95314826,38 C8.64331378,32.3040369 14.3296261,26.6117517 20.045363,20.8900435 C25.7463876,26.5968651 31.4332253,32.2896757 37.1170856,37.9796842 C37.4167615,37.6768732 37.7068044,37.3838699 38,37.0873639 C32.3245468,31.3931522 26.6401611,25.6901836 20.917068,19.9481596 C26.599352,14.2602528 32.2902181,8.5639394 37.9865137,2.8621968 Z" id="Path" fill="#000000" fill-rule="nonzero"></path>
    </g>
</svg>