<svg width="373" height="378" viewBox="0 0 373 378" fill="none" xmlns="http://www.w3.org/2000/svg">
<path d="M17 151C17 77.5461 76.5461 18 150 18C223.454 18 283 77.5461 283 151C283 224.454 223.454 284 150 284C76.5461 284 17 224.454 17 151Z" fill="white"/>
<path d="M159 142.271C182.966 142.197 183.523 142.196 208.578 142.098C211.775 142.092 214.971 142.086 218.168 142.082C219.847 142.072 221.526 142.062 223.256 142.052C224.839 142.052 226.423 142.051 228.055 142.051C229.438 142.046 230.822 142.042 232.247 142.037C233.264 142.116 234.281 142.196 235.328 142.277C236.821 145.264 236.46 148.022 236.453 151.34L236.461 155.188C236.328 158.277 236.328 158.278 235.328 159.277C232.936 159.402 230.541 159.456 228.146 159.483C225.802 159.514 225.801 159.513 223.409 159.544C221.752 159.56 220.094 159.577 218.387 159.594C216.874 159.612 215.361 159.631 213.803 159.65C208.124 159.719 202.445 159.779 196.766 159.84C177.961 160.054 177.742 160.056 159 160.27V238H157.332C157.331 238.092 157.329 238.185 157.328 238.277C146.897 238.277 143.266 238.277 141.726 238H140V219.365C139.983 217.98 139.967 216.587 139.949 215.161C139.884 209.679 139.824 204.197 139.766 198.715C139.722 195.01 139.679 191.305 139.635 187.6C139.527 178.492 139.426 169.385 139.328 160.277C137.903 160.262 137.903 160.262 136.449 160.246C126.604 160.138 116.758 160.024 106.912 159.905C103.233 159.862 99.5533 159.82 95.874 159.78C90.5995 159.723 85.3252 159.659 80.0508 159.594C78.3937 159.577 76.7366 159.561 75.0293 159.544C73.5078 159.524 71.9856 159.504 70.418 159.483C69.0702 159.468 67.7225 159.452 66.334 159.436C63.3285 159.277 63.3281 159.277 62.3281 158.277C62.1765 155.781 62.1063 153.278 62.0781 150.777L62 146.621L62.3281 143.277C65.9107 142.083 68.7706 142.158 72.5537 142.164C74.8053 142.164 74.8055 142.164 77.1025 142.164C78.7276 142.169 80.3531 142.174 82.0273 142.18C83.6877 142.181 85.348 142.183 87.0586 142.185C92.3775 142.19 97.6968 142.202 103.016 142.215C106.615 142.22 110.215 142.224 113.814 142.229C122.543 142.239 131.271 142.256 140 142.276V63H159V142.271Z" fill="black"/>
<path fill-rule="evenodd" clip-rule="evenodd" d="M150.5 0C233.619 0 301 67.3811 301 150.5C301 190.101 285.705 226.129 260.7 253C256.558 257.451 252.15 261.652 247.5 265.575C221.305 287.679 187.458 301 150.5 301C67.3811 301 0 233.619 0 150.5C0 67.3811 67.3811 0 150.5 0ZM150 18C76.5461 18 17 77.5461 17 151C17 224.454 76.5461 284 150 284C223.454 284 283 224.454 283 151C283 77.5461 223.454 18 150 18Z" fill="black"/>
<path d="M373 365L362 377.5C324.5 340.333 249.2 265.9 248 265.5V263L259.5 252L373 365Z" fill="black"/>
</svg>
